<?xml version="1.0" encoding="utf-8"?>
<!-- Generator: Adobe Illustrator 23.0.0, SVG Export Plug-In . SVG Version: 6.00 Build 0)  -->
<svg version="1.1" id="Capa_1" xmlns="http://www.w3.org/2000/svg" xmlns:xlink="http://www.w3.org/1999/xlink" x="0px" y="0px"
	 viewBox="0 0 51 52" style="enable-background:new 0 0 51 52;" xml:space="preserve">
<style type="text/css">
	.st0{fill:none;}
	.st1{fill:#FFFFFF;}
</style>
<g id="Bounding_Box" transform="translate(0 0)">
	<rect id="Rectangle_12" x="0" y="-0.2" class="st0" width="51" height="52"/>
</g>
<g>
	<g id="XMLID_3_">
		<g>
			<path class="st1" d="M20.7,22.8v1.4h-1.4c-0.4,0-0.7,0.3-0.7,0.7c0,0.4,0.3,0.7,0.7,0.7h12.5c0.4,0,0.7-0.3,0.7-0.7
				c0-0.4-0.3-0.7-0.7-0.7h-1.4v-1.4c0-1.3-0.5-2.5-1.4-3.4c-0.8-0.7-1.7-1.2-2.7-1.4v-1.4c0-0.4-0.3-0.7-0.7-0.7s-0.7,0.3-0.7,0.7
				V18C22.5,18.3,20.7,20.3,20.7,22.8z M25.5,19.3c0.9,0,1.8,0.4,2.4,1c0.7,0.7,1,1.5,1,2.4v1.4h-6.9v-1.4
				C22.1,20.8,23.6,19.3,25.5,19.3z"/>
			<path class="st1" d="M21.4,28.3c-0.4,0-0.7,0.3-0.7,0.7s0.3,0.7,0.7,0.7h8.3c0.4,0,0.7-0.3,0.7-0.7s-0.3-0.7-0.7-0.7H21.4z"/>
			<path class="st1" d="M21.4,33.8h8.3c0.4,0,0.7-0.3,0.7-0.7s-0.3-0.7-0.7-0.7h-8.3c-0.4,0-0.7,0.3-0.7,0.7S21,33.8,21.4,33.8z"/>
			<path class="st1" d="M26.6,13.6c0.4,0,0.7-0.3,0.7-0.7s-0.3-0.7-0.7-0.7h-2.1c-0.4,0-0.7,0.3-0.7,0.7s0.3,0.7,0.7,0.7H26.6z"/>
			<path class="st1" d="M26.6,38h-2.1c-0.4,0-0.7,0.3-0.7,0.7s0.3,0.7,0.7,0.7h2.1c0.4,0,0.7-0.3,0.7-0.7S27,38,26.6,38z"/>
			<path class="st1" d="M33.8,8.1H17.2c-1.5,0-2.8,1.2-2.8,2.8v29.9c0,1.5,1.2,2.8,2.8,2.8h5.9c0.4,0,0.7-0.3,0.7-0.7
				c0-0.4-0.3-0.7-0.7-0.7h-5.9c-0.8,0-1.4-0.6-1.4-1.4V10.8c0-0.8,0.6-1.4,1.4-1.4h16.6c0.8,0,1.4,0.6,1.4,1.4v29.9
				c0,0.8-0.6,1.4-1.4,1.4H28c-0.4,0-0.7,0.3-0.7,0.7c0,0.4,0.3,0.7,0.7,0.7h5.9c1.5,0,2.8-1.2,2.8-2.8V10.8
				C36.6,9.3,35.4,8.1,33.8,8.1z"/>
		</g>
	</g>
	<g>
		<g>
			<circle class="st1" cx="25.5" cy="42.8" r="0.7"/>
		</g>
	</g>
</g>
</svg>
