<?xml version="1.0" encoding="utf-8"?>
<!-- Generator: Adobe Illustrator 23.0.0, SVG Export Plug-In . SVG Version: 6.00 Build 0)  -->
<svg version="1.1" id="https:_material.io_resources_icons_icon_group_work_style_outline"
	 xmlns="http://www.w3.org/2000/svg" xmlns:xlink="http://www.w3.org/1999/xlink" x="0px" y="0px" viewBox="0 0 52.3 52.3"
	 style="enable-background:new 0 0 52.3 52.3;" xml:space="preserve">
<style type="text/css">
	.st0{fill:none;}
	.st1{fill:#FFFFFF;}
</style>
<path id="Path_47" class="st0" d="M-0.2,0.1h52.3v52.3H-0.2V0.1z"/>
<g>
	<path class="st1" d="M38.6,6.8c-3.3-0.9-6.9,0.1-9.4,2.5c-0.2,0.2-0.2,0.6,0,0.8c0.2,0.2,0.6,0.2,0.8,0c2.2-2.1,5.3-3,8.3-2.2
		c4.6,1.2,7.3,5.9,6,10.5c-0.6,2.2-2,4.1-4,5.2c-2,1.1-4.3,1.4-6.5,0.8c-0.5-0.1-1-0.3-1.5-0.5c-0.2-0.1-0.5-0.1-0.7,0.2
		c-0.5,0.5-1.2,0.7-1.8,0.7c-0.6,0-1.2-0.1-1.6-0.2c0.7-1,1.2-2.2,0.8-3.5c0,0,0-0.1-0.1-0.1c-1.4-2.1-1.8-4.6-1.2-7
		c0.2-0.6,0.4-1.1,0.6-1.6c0.1-0.3,0-0.6-0.3-0.8c-0.3-0.1-0.6,0-0.8,0.3c-0.3,0.6-0.5,1.2-0.7,1.8c-0.7,2.7-0.3,5.6,1.3,7.9
		c0.3,0.9-0.3,2.1-1,2.7c-0.2,0.2-0.2,0.6,0,0.8c0.5,0.5,1.6,0.8,2.8,0.8c0.1,0,0.1,0,0.2,0c0.9,0,1.7-0.3,2.3-0.8
		c0.4,0.2,0.9,0.3,1.3,0.4c2.5,0.7,5.1,0.3,7.4-1c2.3-1.3,3.9-3.4,4.5-5.9C46.8,13.5,43.7,8.2,38.6,6.8L38.6,6.8z"/>
	<path class="st1" d="M31.7,17.6l3.6,3.6c0.2,0.2,0.4,0.3,0.7,0.3c0.3,0,0.5-0.2,0.7-0.3l3.6-3.6c0,0,0,0,0,0c1.3-1.3,1.3-3.5,0-4.8
		c-1.1-1.1-2.9-1.1-4.3,0.1c-1.4-1.2-3.2-1.2-4.3-0.1C30.4,14.1,30.4,16.3,31.7,17.6C31.7,17.6,31.7,17.6,31.7,17.6L31.7,17.6z
		 M32.6,13.6c0.8-0.8,2-0.5,2.8,0.2c0.1,0,0.1,0.1,0.1,0.1c0.1,0.1,0.3,0.3,0.6,0.3c0.3,0,0.4-0.2,0.6-0.3c0,0,0.1-0.1,0.1-0.1
		c0.8-0.7,2-1,2.8-0.2c0.9,0.9,0.9,2.3,0,3.2L36,20.2l-3-3l-0.4-0.4C31.7,15.9,31.7,14.5,32.6,13.6L32.6,13.6z"/>
	<path class="st1" d="M20.2,20.3c-0.4-0.5-0.9-0.8-1.6-0.9c-0.6-0.1-1.2,0.1-1.7,0.5c-0.5,0.4-0.8,0.9-0.9,1.6
		C16,22,16.1,22.6,16.5,23L12.2,32l-0.1-0.1c-0.2-0.3-0.6-0.5-0.9-0.5c-0.4,0-0.7,0.1-1,0.3c0,0,0,0,0,0l-2.4,1.9
		c-0.3,0.2-0.5,0.6-0.5,0.9c0,0.4,0.1,0.7,0.3,1L8,36.2l-1.5,1.1c-0.2,0.2-0.4,0.4-0.4,0.7c0,0.3,0,0.6,0.2,0.8l2.4,3
		c0.2,0.3,0.5,0.4,0.9,0.4c0.2,0,0.5-0.1,0.7-0.2l1.5-1.1l0.6,0.7c0.3,0.4,0.7,0.5,1.1,0.5c0.1,0,0.3,0,0.4-0.1l2.7,3.5
		c0.2,0.2,0.4,0.4,0.7,0.4c0,0,0.1,0,0.1,0c0.2,0,0.5-0.1,0.7-0.2l1.5-1.2c0.5-0.4,0.6-1.1,0.2-1.5L17,39.5c0.3-0.5,0.3-1.1-0.1-1.6
		l-0.1-0.1l9.7-2c0.4,0.4,0.9,0.7,1.5,0.8c0.1,0,0.2,0,0.3,0c0.5,0,1-0.2,1.4-0.5c1-0.8,1.2-2.3,0.4-3.3L20.2,20.3z M9.6,41.1
		l-2.3-2.9l1.4-1.1L11,40L9.6,41.1z M13.2,40.9l-0.9-1.2c0,0,0,0,0,0l-3.9-5c-0.1-0.1-0.1-0.1-0.1-0.2c0,0,0-0.1,0.1-0.2l2.4-1.9
		c0.1-0.1,0.1-0.1,0.2-0.1c0,0,0.1,0,0.2,0.1l4.1,5.3c0,0,0,0,0,0l0.7,0.9c0.1,0.1,0.1,0.3,0,0.4l0,0c0,0,0,0,0,0l-1.4,1.1l-1,0.8
		C13.5,41,13.3,41,13.2,40.9z M17.4,44.8l-2.6-3.4l0.4-0.3l1-0.8l2.6,3.4L17.4,44.8z M29,35.2c-0.2,0.2-0.6,0.3-0.9,0.2
		c-0.3,0-0.6-0.2-0.8-0.4l-4.1-5.2c-0.2-0.3-0.6-0.3-0.8-0.1s-0.3,0.6-0.1,0.8l3.4,4.3l-9.7,2L13,33l4.3-8.9l3.4,4.3
		c0.2,0.3,0.6,0.3,0.8,0.1c0.3-0.2,0.3-0.6,0.1-0.8l-4.1-5.3c-0.2-0.2-0.3-0.6-0.2-0.9c0-0.3,0.2-0.6,0.4-0.8
		c0.2-0.2,0.5-0.3,0.9-0.2c0.3,0,0.6,0.2,0.8,0.4l9.8,12.6C29.6,34.1,29.5,34.8,29,35.2L29,35.2z"/>
</g>
</svg>
