<?xml version="1.0" encoding="utf-8"?>
<!-- Generator: Adobe Illustrator 23.0.0, SVG Export Plug-In . SVG Version: 6.00 Build 0)  -->
<svg version="1.1" id="https:_material.io_resources_icons_icon_mode_comment_style_outline"
	 xmlns="http://www.w3.org/2000/svg" xmlns:xlink="http://www.w3.org/1999/xlink" x="0px" y="0px" viewBox="0 0 52.3 52.3"
	 style="enable-background:new 0 0 52.3 52.3;" xml:space="preserve">
<style type="text/css">
	.st0{fill:none;}
	.st1{fill:#FFFFFF;}
</style>
<path id="Path_50" class="st0" d="M0.2,0h52.3v52.3H0.2V0z"/>
<g>
	<path class="st1" d="M9.8,14.8c0.6,0,1-0.5,1-1v-3.2H14c0.6,0,1-0.5,1-1c0-0.6-0.5-1-1-1H9.8c-0.6,0-1,0.5-1,1v4.2
		C8.8,14.3,9.2,14.8,9.8,14.8z"/>
	<path class="st1" d="M42.8,8.6h-4.2c-0.6,0-1,0.5-1,1c0,0.6,0.5,1,1,1h3.2v3.2c0,0.6,0.5,1,1,1s1-0.5,1-1V9.6
		C43.9,9,43.4,8.6,42.8,8.6z"/>
	<path class="st1" d="M9.8,43.7H14c0.6,0,1-0.5,1-1s-0.5-1-1-1h-3.2v-3.2c0-0.6-0.5-1-1-1c-0.6,0-1,0.5-1,1v4.2
		C8.8,43.2,9.2,43.7,9.8,43.7z"/>
	<path class="st1" d="M42.8,37.4c-0.6,0-1,0.5-1,1v3.2h-3.2c-0.6,0-1,0.5-1,1s0.5,1,1,1h4.2c0.6,0,1-0.5,1-1v-4.2
		C43.9,37.9,43.4,37.4,42.8,37.4z"/>
	<path class="st1" d="M15.2,22.9c-0.1,0.4-0.2,0.7-0.2,1.1c0,0.8,0.3,1.5,0.8,2.1c-0.5,0.5-0.8,1.3-0.8,2.1c0,0.4,0.1,0.8,0.2,1.1
		c-1.3,0.4-2.3,1.6-2.3,3c0,4,3.2,7.2,7.2,7.2h12.3c4,0,7.2-3.2,7.2-7.2c0-1.4-1-2.6-2.3-3c0.1-0.4,0.2-0.7,0.2-1.1
		c0-0.8-0.3-1.5-0.8-2.1c0.5-0.5,0.8-1.3,0.8-2.1c0-0.4-0.1-0.8-0.2-1.1c1.3-0.4,2.3-1.6,2.3-3c0-4-3.2-7.2-7.2-7.2H20.1
		c-4,0-7.2,3.2-7.2,7.2C12.9,21.4,13.9,22.6,15.2,22.9z M34.5,23c0.6,0,1,0.5,1,1c0,0.6-0.5,1-1,1H18.1c-0.6,0-1-0.5-1-1
		c0-0.6,0.5-1,1-1H34.5z M35.6,28.2c0,0.6-0.5,1-1,1H18.1c-0.6,0-1-0.5-1-1c0-0.6,0.5-1,1-1h16.5C35.1,27.1,35.6,27.6,35.6,28.2z
		 M33.5,37.3v-3c0-0.6-0.5-1-1-1c-0.6,0-1,0.5-1,1v3.1h-4.1v-3.1c0-0.6-0.5-1-1-1c-0.6,0-1,0.5-1,1v3.1h-4.1v-3.1c0-0.6-0.5-1-1-1
		c-0.6,0-1,0.5-1,1v3c-2.3-0.5-4.1-2.6-4.1-5c0-0.6,0.5-1,1-1h20.6c0.6,0,1,0.5,1,1C37.6,34.8,35.9,36.8,33.5,37.3z M19.1,14.9v3
		c0,0.6,0.5,1,1,1c0.6,0,1-0.5,1-1v-3.1h4.1v3.1c0,0.6,0.5,1,1,1c0.6,0,1-0.5,1-1v-3.1h4.1v3.1c0,0.6,0.5,1,1,1c0.6,0,1-0.5,1-1v-3
		c2.3,0.5,4.1,2.6,4.1,5c0,0.6-0.5,1-1,1H16c-0.6,0-1-0.5-1-1C15,17.5,16.8,15.4,19.1,14.9z"/>
</g>
</svg>
