<?xml version="1.0" encoding="utf-8"?>
<!-- Generator: Adobe Illustrator 23.0.0, SVG Export Plug-In . SVG Version: 6.00 Build 0)  -->
<svg version="1.1" id="https:_material.io_resources_icons_icon_mode_comment_style_outline"
	 xmlns="http://www.w3.org/2000/svg" xmlns:xlink="http://www.w3.org/1999/xlink" x="0px" y="0px" viewBox="0 0 52.3 52.3"
	 style="enable-background:new 0 0 52.3 52.3;" xml:space="preserve">
<style type="text/css">
	.st0{fill:none;}
	.st1{fill:#FFFFFF;}
</style>
<path id="Path_50" class="st0" d="M-0.5,0.4h52.3v52.3H-0.5V0.4z"/>
<g>
	<g>
		<g>
			<path class="st1" d="M39.5,27.1c-0.2-0.3-0.2-0.7,0-1.1l1.2-1.8c1.1-1.7,0.4-3.9-1.5-4.6l-2-0.8c-0.4-0.1-0.6-0.5-0.6-0.9
				l-0.1-2.2c-0.1-2-2-3.3-3.9-2.8l-2.1,0.6c-0.4,0.1-0.8,0-1-0.3l-1.4-1.7c-1.2-1.5-3.6-1.5-4.8,0l-1.4,1.7c-0.2,0.3-0.6,0.4-1,0.3
				L18.8,13c-1.9-0.5-3.8,0.9-3.9,2.8L14.8,18c0,0.4-0.3,0.7-0.6,0.9l-2,0.8c-1.8,0.7-2.6,2.9-1.5,4.6l1.2,1.8
				c0.2,0.3,0.2,0.7,0,1.1l-1.2,1.8c-1.1,1.7-0.4,3.9,1.5,4.6l2,0.8c0.4,0.1,0.6,0.5,0.6,0.9l0.1,2.2c0.1,2,2,3.3,3.9,2.8l2.1-0.6
				c0.4-0.1,0.8,0,1,0.3l1.4,1.7c1.2,1.5,3.6,1.5,4.8,0l1.4-1.7c0.2-0.3,0.6-0.4,1-0.3l2.1,0.6c1.9,0.5,3.8-0.9,3.9-2.8l0.1-2.2
				c0-0.4,0.3-0.7,0.6-0.9l2-0.8c1.8-0.7,2.6-2.9,1.5-4.6L39.5,27.1z M38.5,31.5l-2,0.8c-1.1,0.4-1.9,1.5-2,2.7l-0.1,2.2
				c0,0.6-0.6,1.1-1.2,0.9L31,37.5c-1.2-0.3-2.4,0.1-3.2,1l-1.4,1.7c-0.4,0.5-1.1,0.5-1.5,0l-1.4-1.7c-0.6-0.7-1.5-1.1-2.4-1.1
				c-0.3,0-0.5,0-0.8,0.1l-2.1,0.6c-0.6,0.2-1.2-0.3-1.2-0.9L16.9,35c-0.1-1.2-0.8-2.3-2-2.7l-2-0.8c-0.6-0.2-0.8-0.9-0.5-1.5
				l1.2-1.8c0.7-1,0.7-2.4,0-3.4L12.4,23c-0.3-0.5-0.1-1.2,0.5-1.5l2-0.8c1.1-0.4,1.9-1.5,2-2.7l0.1-2.2c0-0.6,0.6-1.1,1.2-0.9
				l2.1,0.6c1.2,0.3,2.4-0.1,3.2-1l1.4-1.7c0.4-0.5,1.1-0.5,1.5,0l1.4,1.7c0.8,1,2,1.4,3.2,1l2.1-0.6c0.6-0.2,1.2,0.3,1.2,0.9
				l0.1,2.2c0.1,1.2,0.8,2.3,2,2.7l2,0.8c0.6,0.2,0.8,0.9,0.5,1.5l-1.2,1.8c-0.7,1-0.7,2.4,0,3.4l1.2,1.8
				C39.3,30.6,39,31.3,38.5,31.5z"/>
		</g>
	</g>
	<g>
		<g>
			<path class="st1" d="M30.9,21.2c-0.4-0.4-1.1-0.4-1.5,0L19.6,31c-0.4,0.4-0.4,1.1,0,1.5c0.2,0.2,0.5,0.3,0.7,0.3
				c0.3,0,0.5-0.1,0.7-0.3l9.9-9.9C31.4,22.2,31.4,21.6,30.9,21.2z"/>
		</g>
	</g>
	<g>
		<g>
			<path class="st1" d="M21.4,20.8c-1.2,0-2.1,0.9-2.1,2.1c0,1.2,0.9,2.1,2.1,2.1c1.2,0,2.1-0.9,2.1-2.1
				C23.5,21.8,22.6,20.8,21.4,20.8z"/>
		</g>
	</g>
	<g>
		<g>
			<path class="st1" d="M29.1,28.6c-1.2,0-2.1,0.9-2.1,2.1c0,1.2,0.9,2.1,2.1,2.1c1.2,0,2.1-0.9,2.1-2.1
				C31.3,29.5,30.3,28.6,29.1,28.6z"/>
		</g>
	</g>
</g>
</svg>
